<?xml version="1.0" encoding="iso-8859-1"?>
<!-- Uploaded to: SVG Repo, www.svgrepo.com, Generator: SVG Repo Mixer Tools -->
<svg height="800px" width="800px" version="1.1" id="Layer_1" xmlns="http://www.w3.org/2000/svg" xmlns:xlink="http://www.w3.org/1999/xlink" 
	 viewBox="0 0 511.85 511.85" xml:space="preserve">
<polygon style="fill:#F6BB42;" points="308.585,180.107 264.832,180.107 244.604,511.85 329.921,511.85 "/>
<g style="opacity:0.1;">
	<path d="M312.177,235.887c-7.92-22.321-16.447-41.487-24.68-55.78h-22.665l-5.873,96.284c1.499,6.467,3.14,13.043,4.921,19.697
		c17.525,65.355,42.783,116.995,60.23,125.539L312.177,235.887z"/>
</g>
<g>
	<path style="fill:#FECD57;" d="M388.716,123.89c-54.498,54.499-108.811,88.551-121.307,76.055
		c-12.496-12.481,21.557-66.792,76.07-121.292c54.5-54.515,108.811-88.566,121.307-76.07
		C477.267,15.079,443.216,69.391,388.716,123.89z"/>
	<path style="fill:#FECD57;" d="M347.011,279.53c19.946,74.446,22.289,138.505,5.217,143.081
		c-17.058,4.577-47.064-52.078-67.012-126.523c-19.946-74.462-22.289-138.521-5.232-143.082
		C297.057,148.429,327.064,205.068,347.011,279.53z"/>
	<path style="fill:#FECD57;" d="M187.84,120.344c74.446,19.963,131.101,49.954,126.524,67.026
		c-4.577,17.073-68.636,14.73-143.082-5.217c-74.461-19.947-131.101-49.954-126.539-67.026
		C49.32,98.07,113.379,100.397,187.84,120.344z"/>
</g>
<path style="fill:#E6E9ED;" d="M287.247,212.097c-8.545,0-16.573-3.327-22.618-9.372c-12.465-12.465-12.465-32.771,0-45.236
	c6.045-6.045,14.073-9.372,22.618-9.372c8.561,0,16.589,3.327,22.634,9.372c12.465,12.465,12.465,32.771,0,45.236
	C303.836,208.77,295.808,212.097,287.247,212.097z"/>
<path style="fill:#CCD1D9;" d="M317.409,149.945c-8.325-8.326-19.244-12.48-30.162-12.48c-10.902,0-21.821,4.155-30.146,12.48
	c-16.668,16.667-16.668,43.674,0,60.325c8.325,8.326,19.244,12.496,30.146,12.496c10.918,0,21.837-4.17,30.162-12.496
	C334.077,193.619,334.077,166.611,317.409,149.945z M302.337,195.196c-4.031,4.014-9.389,6.232-15.09,6.232
	c-5.686,0-11.043-2.218-15.074-6.232c-8.309-8.326-8.309-21.853,0-30.163c4.031-4.03,9.389-6.248,15.074-6.248
	c5.701,0,11.059,2.218,15.09,6.248C310.646,173.343,310.646,186.871,302.337,195.196z"/>
</svg>